<?xml version="1.0" ?><svg id="Layer_1" style="enable-background:new 0 0 66 66;" version="1.1" viewBox="0 0 66 66" xml:space="preserve" xmlns="http://www.w3.org/2000/svg" xmlns:xlink="http://www.w3.org/1999/xlink"><g><path d="M59.81,13.81H46.56V8.43c0-2.4-1.96-4.36-4.37-4.36H23.81c-2.41,0-4.37,1.96-4.37,4.36v5.38H6.19   c-2.59,0-4.69,2.1-4.69,4.69v7.68c0,1.48,1.21,2.69,2.69,2.69h0.54v24.1c0,3.12,2.54,5.67,5.67,5.67h1.26v1.02   c0,1.25,1.02,2.27,2.27,2.27h8c1.25,0,2.27-1.02,2.27-2.27v-1.02h17.61v1.02c0,1.25,1.02,2.27,2.27,2.27h8   c1.25,0,2.27-1.02,2.27-2.27v-1.02h1.26c3.12,0,5.67-2.54,5.67-5.67v-24.1h0.54c1.48,0,2.69-1.21,2.69-2.69V18.5   C64.5,15.91,62.4,13.81,59.81,13.81z M20.44,8.43c0-1.85,1.51-3.36,3.37-3.36h18.38c1.86,0,3.37,1.51,3.37,3.36v5.38h-2.83V10.1   c0-1.19-0.97-2.16-2.16-2.16H25.44c-1.2,0-2.17,0.97-2.17,2.16v3.71h-2.83V8.43z M41.73,10.1v3.71H24.27V10.1   c0-0.64,0.52-1.16,1.17-1.16h15.13C41.21,8.94,41.73,9.46,41.73,10.1z M23.19,59.66c0,0.7-0.57,1.27-1.27,1.27h-8   c-0.7,0-1.27-0.57-1.27-1.27v-1.02h10.54V59.66z M53.35,59.66c0,0.7-0.57,1.27-1.27,1.27h-8c-0.7,0-1.27-0.57-1.27-1.27v-1.02   h10.54V59.66z M60.27,52.97c0,2.57-2.09,4.67-4.67,4.67H10.39c-2.57,0-4.67-2.09-4.67-4.67v-24.1h6.15c0,1.02,0.1,2.05,0.78,2.87   c0.64,0.77,1.6,1.23,2.6,1.23c1.02,0,2-0.49,2.64-1.29c0.67-0.84,0.74-1.77,0.74-2.81h28.72c0,0,0,0.72,0,0.72   c0,1.7,1.35,3.13,3.02,3.34c2.42,0.31,3.74-1.91,3.74-4.05h6.15V52.97z M17.26,30.87c-0.43,0.68-1.2,1.1-2,1.1   c-0.98,0-2.02-0.68-2.28-1.66c-0.18-0.66-0.12-1.48-0.13-2.16c0-0.92-0.11-2.06,0.42-2.86c0.44-0.66,1.19-1.06,1.98-1.06   c0.98,0,1.83,0.6,2.19,1.45c0.12,0.28,0.19,0.6,0.19,0.93c0,0.55,0,1.09-0.01,1.64C17.62,29.12,17.77,30.08,17.26,30.87z    M48.64,25.48c0.41-0.77,1.23-1.27,2.1-1.27c1.31,0,2.38,1.07,2.38,2.38c0,0.59,0,1.18,0,1.77c0,0.65,0.09,1.43-0.15,2.06   c-0.35,0.92-1.25,1.54-2.23,1.54c-0.96,0-1.85-0.6-2.21-1.49c-0.33-0.82-0.2-1.72-0.21-2.57C48.31,27.08,48.24,26.23,48.64,25.48z    M63.5,26.17c0,0.93-0.76,1.69-1.69,1.69h-1.04h-6.65v-1.27c0-1.86-1.52-3.38-3.38-3.38c-0.23,0-0.46,0.02-0.68,0.07   c-1.54,0.32-2.7,1.68-2.7,3.31v1.27H18.64v-1.27c0-0.23-0.02-0.46-0.07-0.68c-0.32-1.54-1.68-2.7-3.31-2.7c0,0,0,0,0,0s0,0,0,0   c-1.4,0-2.6,0.85-3.11,2.07c-0.17,0.4-0.27,0.85-0.27,1.31v1.27H4.19c-0.93,0-1.69-0.76-1.69-1.69V18.5c0-2.03,1.66-3.69,3.69-3.69   h53.62c2.03,0,3.69,1.66,3.69,3.69V26.17z"/><path d="M50.68,36.74H15.31c-1.79,0-3.25,1.46-3.25,3.25v8.56c0,1.79,1.46,3.25,3.25,3.25h35.37c1.79,0,3.25-1.46,3.25-3.25V40   C53.94,38.2,52.48,36.74,50.68,36.74z M52.94,48.56c0,1.24-1.01,2.25-2.25,2.25H15.31c-1.24,0-2.25-1.01-2.25-2.25V40   c0-1.24,1.01-2.25,2.25-2.25h35.37c1.24,0,2.25,1.01,2.25,2.25V48.56z"/></g></svg>